<svg width="19" height="20" viewBox="0 0 19 20" fill="none" xmlns="http://www.w3.org/2000/svg">
<path d="M9.5 18.375H7.53125C4.97188 18.375 2.9375 16.3406 2.9375 13.7813V11.1563H4.25V13.7813C4.25 15.6188 5.69375 17.0625 7.53125 17.0625H9.5V18.375ZM17.375 19.6875H18.8188L15.8 12.4688H14.3563L11.3375 19.6875H12.7813L13.3063 18.375H16.7844L17.375 19.6875ZM13.8969 17.0625L15.0781 14.175L16.2594 17.0625H13.8969ZM17.375 9.84375H16.0625V7.21875C16.0625 5.38125 14.6188 3.9375 12.7813 3.9375H10.1563V2.625H12.7813C15.3406 2.625 17.375 4.65938 17.375 7.21875V9.84375ZM8.1875 3.28125V1.96875H4.90625V0.65625H3.59375V1.96875H0.3125V3.28125H5.69375C5.5625 3.87188 5.16875 4.92188 4.25 5.90625C3.85625 5.44688 3.52813 4.9875 3.33125 4.59375H1.82188C2.08438 5.25 2.54375 6.0375 3.2 6.75938C2.675 7.21875 1.8875 7.6125 0.96875 7.94063L1.42813 9.1875C2.60938 8.72813 3.52813 8.20313 4.25 7.67813C4.97188 8.26875 5.89063 8.79375 7.07188 9.1875L7.53125 7.94063C6.6125 7.6125 5.825 7.15313 5.23438 6.75938C6.48125 5.44688 6.875 4.06875 7.00625 3.28125H8.1875Z" fill="#0E314C"/>
</svg>
