<svg width="160" height="160" viewBox="0 0 160 160" fill="none" xmlns="http://www.w3.org/2000/svg">
<circle opacity="0.2" cx="80" cy="80" r="80" fill="#D5E2EB"/>
<g filter="url(#filter0_d_70_35204)">
<path d="M52 39.0001V61H64V41.0001C64.1667 36.6668 67.5 27.9001 79.5 27.5001C91.5 27.1001 96.1667 36.3334 97 41.0001V60.0001H108V39.0003C108 30.0005 98.5 16.0002 79.5 16C59.464 15.9998 52 33.0005 52 39.0001Z" fill="#4B687F"/>
<path d="M37 98.3631V89H123.5V96.9101C123.5 105.929 122.693 115.214 117.744 122.753C111.127 132.834 99.0736 143.448 80 144C59.9111 144.583 47.7865 132.662 41.5826 121.697C37.6128 114.68 37 106.425 37 98.3631Z" fill="#00C39D"/>
<path d="M111.5 60.5005H48.7482C45.9245 60.5005 42.8676 60.734 40.9132 62.772C37.5055 66.3254 37 71.53 37 76.4534V87.7025C37 97.8387 38.1334 108.276 44.0274 116.523C50.9483 126.206 62.55 135.971 79.5 136.5C95.7338 137.008 107.464 128.293 114.894 119.001C122.072 110.024 123.5 98.1244 123.5 86.6304V80.6067C123.5 72.8951 123.047 63.4638 115.682 61.1759C114.102 60.6851 112.598 60.5005 111.5 60.5005Z" fill="#04DDB3"/>
<circle cx="80" cy="87.0005" r="9.5" fill="#3E5063"/>
<path d="M74.5 93.5005H85.5V110C85.5 113.038 83.0376 115.5 80 115.5C76.9624 115.5 74.5 113.038 74.5 110V93.5005Z" fill="#3E5063"/>
</g>
<defs>
<filter id="filter0_d_70_35204" x="33" y="16" width="94.5" height="136.021" filterUnits="userSpaceOnUse" color-interpolation-filters="sRGB">
<feFlood flood-opacity="0" result="BackgroundImageFix"/>
<feColorMatrix in="SourceAlpha" type="matrix" values="0 0 0 0 0 0 0 0 0 0 0 0 0 0 0 0 0 0 127 0" result="hardAlpha"/>
<feOffset dy="4"/>
<feGaussianBlur stdDeviation="2"/>
<feComposite in2="hardAlpha" operator="out"/>
<feColorMatrix type="matrix" values="0 0 0 0 0 0 0 0 0 0 0 0 0 0 0 0 0 0 0.25 0"/>
<feBlend mode="normal" in2="BackgroundImageFix" result="effect1_dropShadow_70_35204"/>
<feBlend mode="normal" in="SourceGraphic" in2="effect1_dropShadow_70_35204" result="shape"/>
</filter>
</defs>
</svg>
