<svg width="153" height="136" viewBox="0 0 153 136" fill="none" xmlns="http://www.w3.org/2000/svg">
<rect width="48.0349" height="17.7907" transform="matrix(-1 0 0 1 136.988 0)" fill="#FCAF3C"/>
<rect width="48.0349" height="17.7907" transform="matrix(-1 0 0 1 136.988 117.419)" fill="#FCAF3C"/>
<rect width="134.32" height="17.7907" transform="matrix(4.37114e-08 1 1 -4.37114e-08 119.198 0)" fill="#FCAF3C"/>
<rect x="2.6687" width="48.0349" height="17.7907" fill="#FCAF3C"/>
<rect x="2.6687" y="117.419" width="48.0349" height="17.7907" fill="#FCAF3C"/>
<rect x="20.4595" width="134.32" height="17.7907" transform="rotate(90 20.4595 0)" fill="#FCAF3C"/>
<path d="M153 49.2588C76.9719 31.2409 62.7768 81.9262 65.1827 109.521C69.9963 94.425 94.0535 82.9408 105.48 79.0856C97.3002 82.9814 84.8293 94.1005 79.6164 99.1731C110.894 103.434 124.127 86.9989 132.547 72.9985C139.284 61.7983 148.99 52.5052 153 49.2588Z" fill="#96C93E"/>
<path d="M24.0455 20.2884C82.0208 39.0958 71.279 78.2834 58.6612 95.5262C61.4693 83.6181 49.9817 66.3234 43.8869 59.1646C47.7967 65.0392 51.6905 77.4143 53.1486 82.8676C30.5555 73.0502 28.274 56.8585 28.2352 44.217C28.2043 34.1038 25.4292 24.0507 24.0455 20.2884Z" fill="#96C93E"/>
</svg>
