<svg width="160" height="166" viewBox="0 0 160 166" fill="none" xmlns="http://www.w3.org/2000/svg">
<circle opacity="0.2" cx="80" cy="86" r="80" fill="#D5E2EB"/>
<path d="M71.9403 30L25 77.3418L80.5 118L136 77.3418L71.9403 30Z" fill="#69441C"/>
<g filter="url(#filter0_d_365_52550)">
<path d="M33.1481 16.6192C33.0478 34.9609 32.8527 72.6635 33.1885 94.0726V108C33.1885 113.523 37.6657 118 43.1885 118H116C121.523 118 126 113.523 126 108V35.2701C126 32.8658 125.134 30.542 123.56 28.7244L106.893 9.47429C104.993 7.28048 102.236 6.01995 99.3337 6.01995H43.7933C38.0328 6.01995 33.1795 10.8588 33.1481 16.6192Z" fill="#F8F8F8"/>
</g>
<path d="M80.7775 111.226L25 77V139H136V77L80.7775 111.226Z" fill="#F5C44C"/>
<path d="M61.63 100L25 139H136L99.0925 100L81.055 111.504L61.63 100Z" fill="#F3A044"/>
<rect x="44" y="25" width="21" height="21" rx="2" fill="#4B687F" fill-opacity="0.2"/>
<rect x="44" y="58" width="72" height="7" rx="3.5" fill="#4B687F" fill-opacity="0.2"/>
<rect x="44" y="70" width="72" height="7" rx="3.5" fill="#4B687F" fill-opacity="0.2"/>
<defs>
<filter id="filter0_d_365_52550" x="23" y="0.0198975" width="113" height="131.98" filterUnits="userSpaceOnUse" color-interpolation-filters="sRGB">
<feFlood flood-opacity="0" result="BackgroundImageFix"/>
<feColorMatrix in="SourceAlpha" type="matrix" values="0 0 0 0 0 0 0 0 0 0 0 0 0 0 0 0 0 0 127 0" result="hardAlpha"/>
<feOffset dy="4"/>
<feGaussianBlur stdDeviation="5"/>
<feComposite in2="hardAlpha" operator="out"/>
<feColorMatrix type="matrix" values="0 0 0 0 0 0 0 0 0 0 0 0 0 0 0 0 0 0 0.1 0"/>
<feBlend mode="normal" in2="BackgroundImageFix" result="effect1_dropShadow_365_52550"/>
<feBlend mode="normal" in="SourceGraphic" in2="effect1_dropShadow_365_52550" result="shape"/>
</filter>
</defs>
</svg>
