<svg width="28" height="28" viewBox="0 0 28 28" fill="none" xmlns="http://www.w3.org/2000/svg">
<path d="M0.718749 1.78125L0.71875 26.2188C0.71875 26.8064 1.19355 27.2812 1.78125 27.2812L26.2188 27.2812C26.8064 27.2812 27.2812 26.8064 27.2812 26.2187L27.2812 1.78125C27.2812 1.19355 26.8064 0.718749 26.2187 0.718749L1.78125 0.71875C1.19355 0.71875 0.718749 1.19355 0.718749 1.78125ZM16.125 3.10937L16.125 13.4687L11.875 13.4687L11.875 3.10937L16.125 3.10937ZM24.8906 3.10937L24.8906 24.8906L3.10937 24.8906L3.10937 3.10937L9.75 3.10937L9.75 14.5312C9.75 15.1189 10.2248 15.5937 10.8125 15.5937L17.1875 15.5937C17.7752 15.5937 18.25 15.1189 18.25 14.5312L18.25 3.10937L24.8906 3.10937Z" fill="#0E314C"/>
</svg>
