<svg width="45" height="44" viewBox="0 0 45 44"  xmlns="http://www.w3.org/2000/svg">
<path d="M1.35 14.4H4.5C4.7475 14.4 4.95 14.1975 4.95 13.95V4.05H14.85C15.0975 4.05 15.3 3.8475 15.3 3.6V0.45C15.3 0.2025 15.0975 0 14.85 0H4.725C2.61 0 0.9 1.71 0.9 3.825V13.95C0.9 14.1975 1.1025 14.4 1.35 14.4ZM30.15 4.05H40.05V13.95C40.05 14.1975 40.2525 14.4 40.5 14.4H43.65C43.8975 14.4 44.1 14.1975 44.1 13.95V3.825C44.1 1.71 42.39 0 40.275 0H30.15C29.9025 0 29.7 0.2025 29.7 0.45V3.6C29.7 3.8475 29.9025 4.05 30.15 4.05ZM14.85 39.15H4.95V29.25C4.95 29.0025 4.7475 28.8 4.5 28.8H1.35C1.1025 28.8 0.9 29.0025 0.9 29.25V39.375C0.9 41.49 2.61 43.2 4.725 43.2H14.85C15.0975 43.2 15.3 42.9975 15.3 42.75V39.6C15.3 39.3525 15.0975 39.15 14.85 39.15ZM43.65 28.8H40.5C40.2525 28.8 40.05 29.0025 40.05 29.25V39.15H30.15C29.9025 39.15 29.7 39.3525 29.7 39.6V42.75C29.7 42.9975 29.9025 43.2 30.15 43.2H40.275C42.39 43.2 44.1 41.49 44.1 39.375V29.25C44.1 29.0025 43.8975 28.8 43.65 28.8ZM44.55 19.575H0.45C0.2025 19.575 0 19.7775 0 20.025V23.175C0 23.4225 0.2025 23.625 0.45 23.625H44.55C44.7975 23.625 45 23.4225 45 23.175V20.025C45 19.7775 44.7975 19.575 44.55 19.575Z" />
</svg>
