<svg width="36" height="36" viewBox="0 0 36 36" fill="none" xmlns="http://www.w3.org/2000/svg">
<path d="M27.625 9.75C27.625 15.0657 23.3157 19.375 18 19.375C12.6843 19.375 8.375 15.0657 8.375 9.75C8.375 4.43426 12.6843 0.125 18 0.125C23.3157 0.125 27.625 4.43426 27.625 9.75ZM24.875 9.75C24.875 5.95304 21.797 2.875 18 2.875C14.203 2.875 11.125 5.95304 11.125 9.75C11.125 13.547 14.203 16.625 18 16.625C21.797 16.625 24.875 13.547 24.875 9.75Z" fill="black" fill-opacity="0.9"/>
<path d="M34.3986 25.8451C35.3167 26.2836 35.875 27.2253 35.875 28.2427V34.5C35.875 35.2594 35.2594 35.875 34.5 35.875H1.5C0.740612 35.875 0.125 35.2594 0.125 34.5V28.2427C0.125 27.2253 0.683294 26.2836 1.60138 25.8451C6.58586 23.4645 12.1329 22.125 18 22.125C23.8671 22.125 29.4141 23.4645 34.3986 25.8451ZM18 24.875C12.5919 24.875 7.47945 26.1007 2.875 28.2845V33.125H33.125V28.2845C28.5206 26.1007 23.4081 24.875 18 24.875Z" fill="black" fill-opacity="0.9"/>
</svg>
